# xmcd CD database file
#
# Track frame offsets:
#	150
#	40267
#	75292
#	116433
#	168068
#
# Disc length: 2821 seconds
#
# Revision: 0
# Processed by: cddbd v1.5.1PL0 Copyright (c) Steve Scherf et al.
# Submitted via: CDex 1.51
#
DISCID=290b0305
DTITLE=Bill Bruford - (1999.01.26) Great American Music Hall, SF - Disc 2
DYEAR=1999
DGENRE=Jazz
TTITLE0=The Emperor's New Clothes
TTITLE1=Dewey-eyed, Then Dancing
TTITLE2=Curiouser And Curiouser
TTITLE3=Bridge Of Inhibition
TTITLE4=No Truce With The Furies
EXTD=YEAR: 1999
EXTT0=
EXTT1=
EXTT2=
EXTT3=
EXTT4=
PLAYORDER=
